<svg xmlns="http://www.w3.org/2000/svg" xmlns:xlink="http://www.w3.org/1999/xlink" viewBox="0 0 470.49 470.49"><defs><style>.cls-1{isolation:isolate;}.cls-2{fill:url(#linear-gradient);}.cls-3,.cls-4{mix-blend-mode:multiply;}.cls-3{fill:url(#linear-gradient-2);}.cls-4{fill:url(#linear-gradient-3);}</style><linearGradient id="linear-gradient" x1="768.51" y1="241.2" x2="1162.83" y2="698.25" gradientUnits="userSpaceOnUse"><stop offset="0" stop-color="#f7931e"/><stop offset="1" stop-color="#f15a24"/></linearGradient><linearGradient id="linear-gradient-2" x1="852.14" y1="232.68" x2="777.09" y2="289.25" gradientUnits="userSpaceOnUse"><stop offset="0" stop-color="#fff" stop-opacity="0"/><stop offset="1"/></linearGradient><linearGradient id="linear-gradient-3" x1="1116.9" y1="452.26" x2="1116.9" y2="613.49" gradientUnits="userSpaceOnUse"><stop offset="0" stop-color="#fff" stop-opacity="0"/><stop offset="1" stop-color="#8f8d8d" stop-opacity="0.51"/></linearGradient></defs><g class="cls-1"><g id="Layer_1" data-name="Layer 1"><path class="cls-2" d="M1111.24,212.51H782.18a70.92,70.92,0,0,0-70.71,70.72c.22,9.46,7,18.44,13.49,24.9L921.7,470.64a27.84,27.84,0,0,0,36.61-1L1013,419.28a35.47,35.47,0,1,0-49.45-50.83l0,.06a31.19,31.19,0,0,1-43,1.62L837.68,297h214.48a45.45,45.45,0,0,1,45.32,45.32V553.2a45.45,45.45,0,0,1-45.32,45.32H841.27A45.45,45.45,0,0,1,796,553.2a16,16,0,0,0-16-16H727.48a16,16,0,0,0-16,16v59.08A70.92,70.92,0,0,0,782.18,683h329.06A70.92,70.92,0,0,0,1182,612.28v-329A70.92,70.92,0,0,0,1111.24,212.51Z" transform="translate(-711.47 -212.51)"/><path class="cls-3" d="M837.68,297s-110.35-84.19-55.5-84.48h90.43v84.14Z" transform="translate(-711.47 -212.51)"/><path class="cls-4" d="M1052.16,598.52s129.48,15,129.48-74.23V472.65h-84.17V553.2S1098.4,594.28,1052.16,598.52Z" transform="translate(-711.47 -212.51)"/></g></g></svg>